<svg width="18" height="20" viewBox="0 0 18 20" fill="none" xmlns="http://www.w3.org/2000/svg">
<path fill-rule="evenodd" clip-rule="evenodd" d="M1.172 1.172C-1.19209e-07 2.343 0 4.229 0 8V12C0 15.771 -1.19209e-07 17.657 1.172 18.828C2.344 19.999 4.229 20 8 20H10C13.771 20 15.657 20 16.828 18.828C17.999 17.656 18 15.771 18 12V8C18 4.229 18 2.343 16.828 1.172C15.656 0.000999928 13.771 0 10 0H8C4.229 0 2.343 -1.19209e-07 1.172 1.172ZM5 7.25C4.80109 7.25 4.61032 7.32902 4.46967 7.46967C4.32902 7.61032 4.25 7.80109 4.25 8C4.25 8.19891 4.32902 8.38968 4.46967 8.53033C4.61032 8.67098 4.80109 8.75 5 8.75H13C13.1989 8.75 13.3897 8.67098 13.5303 8.53033C13.671 8.38968 13.75 8.19891 13.75 8C13.75 7.80109 13.671 7.61032 13.5303 7.46967C13.3897 7.32902 13.1989 7.25 13 7.25H5ZM5 11.25C4.80109 11.25 4.61032 11.329 4.46967 11.4697C4.32902 11.6103 4.25 11.8011 4.25 12C4.25 12.1989 4.32902 12.3897 4.46967 12.5303C4.61032 12.671 4.80109 12.75 5 12.75H10C10.1989 12.75 10.3897 12.671 10.5303 12.5303C10.671 12.3897 10.75 12.1989 10.75 12C10.75 11.8011 10.671 11.6103 10.5303 11.4697C10.3897 11.329 10.1989 11.25 10 11.25H5Z" fill="#272726"/>
</svg>
